<?xml version="1.0" standalone="no"?><!DOCTYPE svg PUBLIC "-//W3C//DTD SVG 1.1//EN" "http://www.w3.org/Graphics/SVG/1.1/DTD/svg11.dtd"><svg t="1526737132982" class="icon" style="" viewBox="0 0 1024 1024" version="1.1" xmlns="http://www.w3.org/2000/svg" p-id="1057" xmlns:xlink="http://www.w3.org/1999/xlink" width="32" height="32"><defs><style type="text/css"></style></defs><path d="M1009.319087 5.274069a31.995081 31.995081 0 0 0-35.194589 0l-959.852422 639.901615a31.995081 31.995081 0 0 0 5.759114 56.311342l250.201532 100.144603 117.741897 206.04832A31.995081 31.995081 0 0 0 416.13029 1023.99744a31.995081 31.995081 0 0 0 27.515769-15.677589l66.549768-110.70298 310.032333 124.140914A31.995081 31.995081 0 0 0 832.06634 1023.99744a31.995081 31.995081 0 0 0 31.99508-26.875867l159.975404-959.852423a31.995081 31.995081 0 0 0-14.717737-31.995081zM100.658794 665.012634L841.984815 170.688637l-539.117111 575.911453a63.990162 63.990162 0 0 0-8.638672-5.119213z m225.565319 105.263816L931.890992 121.096261 416.13029 926.092493z m479.926211 177.252747l-273.237989-109.423176a63.990162 63.990162 0 0 0-19.83695-3.839409L934.450598 182.206866z" fill="#1296db" p-id="1058"></path></svg>